<?xml version="1.0" standalone="no"?>
<!DOCTYPE svg PUBLIC "-//W3C//DTD SVG 20010904//EN"
 "http://www.w3.org/TR/2001/REC-SVG-20010904/DTD/svg10.dtd">
<svg version="1.0" xmlns="http://www.w3.org/2000/svg"
 width="512.000000pt" height="512.000000pt" viewBox="0 0 512.000000 512.000000"
 preserveAspectRatio="xMidYMid meet">
<metadata>
Created by potrace 1.14, written by Peter Selinger 2001-2017
</metadata>
<g transform="translate(0.000000,512.000000) scale(0.100000,-0.100000)"
fill="#000000" stroke="none">
<path d="M670 3347 c0 -1181 4 -1801 11 -1857 33 -272 118 -507 260 -721 89
-134 291 -333 433 -428 610 -405 1476 -455 2141 -124 480 239 772 613 887
1139 l22 99 3 1833 3 1832 -1880 0 -1880 0 0 -1773z m3700 1443 l0 -270 -1820
0 -1820 0 0 270 0 270 1820 0 1820 0 0 -270z m-1850 -1310 l0 -980 -895 0
-895 0 0 980 0 980 895 0 895 0 0 -980z m1850 -617 l0 -748 -876 -395 c-482
-217 -885 -398 -895 -402 -18 -7 -19 14 -19 746 l0 753 213 95 c116 53 213 94
215 93 1 -1 -11 -31 -28 -67 -119 -255 -126 -684 -16 -961 14 -35 26 -66 26
-69 0 -18 -35 -14 -66 7 -71 48 -200 70 -258 44 -13 -7 -30 -25 -37 -41 -17
-43 1 -75 58 -100 39 -17 59 -20 120 -14 40 3 89 13 109 21 20 8 40 15 45 15
17 0 9 -27 -15 -49 -55 -52 -86 -181 -56 -235 26 -50 97 -46 131 7 17 28 20
44 16 127 -2 52 -7 103 -12 112 -14 34 22 30 75 -6 29 -20 71 -41 93 -47 127
-34 227 37 147 105 -53 44 -144 58 -236 35 -64 -16 -75 -2 -36 48 40 50 77
130 104 229 20 73 22 110 27 499 3 231 10 426 14 433 13 19 31 15 130 -27 180
-77 312 -105 357 -76 8 5 45 10 83 10 67 0 67 0 62 -25 -3 -14 1 -115 10 -225
25 -330 18 -451 -31 -553 -14 -29 -41 -64 -59 -78 l-34 -26 -103 37 c-136 49
-249 59 -291 25 -23 -18 -28 -29 -25 -58 2 -29 10 -40 38 -57 48 -28 236 -29
326 -1 l60 18 85 -28 c111 -36 245 -40 299 -8 64 37 73 96 19 125 -33 17 -138
12 -211 -11 -89 -27 -95 -41 -10 -23 101 22 197 22 219 0 22 -22 10 -45 -38
-70 -44 -24 -167 -18 -260 12 l-66 21 43 44 c64 68 86 136 92 286 2 78 -2 175
-12 260 -8 74 -18 178 -22 230 -7 108 -9 106 69 134 135 50 186 156 75 156
-69 0 -133 -50 -158 -125 -11 -35 -12 -35 -69 -35 l-58 0 -11 38 c-29 96 -175
165 -215 101 -27 -43 18 -93 122 -135 l56 -24 -38 0 c-62 0 -158 29 -261 78
l-97 47 528 237 c291 130 534 237 541 237 9 1 12 -155 12 -746z m-732 278 c29
-20 70 -86 60 -96 -8 -8 -112 33 -142 56 -25 20 -34 48 -18 63 11 12 70 -1
100 -23z m396 23 c25 -10 19 -31 -17 -58 -37 -29 -126 -70 -134 -63 -7 8 23
60 50 85 13 13 37 27 53 32 16 4 30 9 31 9 1 1 8 -2 17 -5z m-873 -480 c-11
-406 -20 -500 -62 -608 -22 -54 -70 -136 -80 -136 -12 0 -56 121 -75 205 -29
122 -26 422 5 565 41 191 106 320 175 350 23 9 42 16 44 15 1 -1 -2 -177 -7
-391z m-641 -1438 l0 -1185 -32 4 c-18 2 -73 7 -123 9 -49 3 -130 12 -180 21
-754 130 -1281 598 -1415 1256 -31 152 -40 304 -40 707 l0 372 895 0 895 0 0
-1184z m1068 872 c51 -16 90 -33 87 -38 -9 -15 -103 -30 -183 -29 -97 0 -146
16 -150 47 -10 68 74 75 246 20z m-713 -213 c30 -14 55 -30 55 -34 0 -11 -65
-29 -130 -35 -64 -7 -116 9 -137 41 -13 19 -12 24 8 44 19 19 29 21 85 16 41
-3 84 -15 119 -32z m150 -46 c-8 -12 -35 -12 -35 0 0 11 22 20 33 14 4 -2 5
-9 2 -14z m274 -14 c42 -21 48 -35 21 -57 -25 -20 -67 -23 -121 -8 -43 12
-103 51 -101 65 3 28 147 28 201 0z m-295 -86 c10 -51 7 -146 -6 -174 -13 -30
-52 -43 -73 -25 -33 27 -7 158 42 212 23 25 30 23 37 -13z"/>
<path d="M1010 4800 l0 -210 40 0 40 0 0 210 0 210 -40 0 -40 0 0 -210z"/>
<path d="M1207 5003 c-4 -3 -7 -98 -7 -210 l0 -203 45 0 44 0 3 129 3 129 89
-129 89 -129 44 0 43 0 -2 208 -3 207 -40 0 -40 0 -5 -128 -5 -128 -90 130
c-87 126 -91 130 -126 131 -20 0 -39 -3 -42 -7z"/>
<path d="M1760 4988 c-66 -45 -75 -68 -75 -186 0 -122 15 -161 75 -197 46 -26
150 -27 198 -1 43 22 71 84 72 154 l0 52 -85 0 -85 0 0 -30 c0 -29 2 -30 46
-30 l47 0 -7 -32 c-8 -44 -30 -58 -87 -58 -39 0 -51 5 -68 26 -42 53 -39 187
4 230 34 34 97 33 130 -1 14 -13 25 -29 25 -35 0 -5 18 -10 40 -10 47 0 51 15
22 69 -27 49 -73 71 -153 71 -52 0 -73 -5 -99 -22z"/>
<path d="M2137 5003 c-4 -3 -7 -98 -7 -210 l0 -203 150 0 150 0 0 35 0 35
-105 0 -105 0 0 50 0 50 90 0 90 0 0 40 0 40 -90 0 -90 0 0 50 0 50 105 0 105
0 0 35 0 35 -143 0 c-79 0 -147 -3 -150 -7z"/>
<path d="M2537 5003 c-4 -3 -7 -98 -7 -210 l0 -203 45 0 44 0 3 129 3 129 89
-129 89 -129 44 0 43 0 -2 208 -3 207 -40 0 -40 0 -5 -128 -5 -128 -90 130
c-87 126 -91 130 -126 131 -20 0 -39 -3 -42 -7z"/>
<path d="M3020 4800 l0 -210 40 0 40 0 0 210 0 210 -40 0 -40 0 0 -210z"/>
<path d="M3214 4996 c-3 -8 -4 -80 -2 -158 3 -113 7 -150 21 -176 27 -50 71
-72 145 -72 68 0 103 13 142 55 24 26 25 31 28 196 l3 169 -40 0 -41 0 0 -149
c0 -135 -2 -151 -21 -175 -16 -21 -29 -26 -63 -26 -77 0 -80 7 -86 187 l-5
158 -38 3 c-26 2 -39 -1 -43 -12z"/>
<path d="M3677 5003 c-4 -3 -7 -98 -7 -210 l0 -203 45 0 44 0 3 121 3 122 45
-81 c41 -74 48 -82 75 -82 27 0 34 8 77 88 l47 87 1 -127 0 -128 40 0 40 0 0
210 0 210 -39 0 -39 0 -64 -120 -64 -120 -64 120 c-64 119 -65 120 -101 120
-20 0 -39 -3 -42 -7z"/>
<path d="M1495 4372 c-61 -29 -120 -85 -152 -144 -14 -25 -18 -56 -18 -128 0
-88 2 -98 30 -143 17 -27 40 -65 52 -85 28 -46 39 -116 24 -145 -14 -28 -8
-193 9 -228 15 -32 146 -109 185 -109 38 0 167 75 186 109 14 23 16 55 13 184
l-3 156 36 53 c59 87 77 136 77 208 -1 89 -31 156 -100 219 -95 87 -224 107
-339 53z m228 -18 c63 -21 130 -82 156 -143 22 -52 32 -134 17 -148 -15 -16
-181 -15 -295 1 -175 25 -176 25 -215 16 l-36 -8 0 47 c0 170 198 295 373 235z
m-153 -320 c52 -9 146 -17 207 -18 62 0 113 -2 113 -4 0 -9 -36 -71 -57 -99
-27 -36 -53 -111 -53 -155 l0 -28 -155 0 -155 0 0 33 c0 53 -17 99 -65 171
-46 70 -55 100 -32 109 25 10 104 7 197 -9z"/>
<path d="M1673 4000 c-43 -18 -55 -68 -23 -100 40 -40 110 -14 110 41 0 30 -9
43 -37 58 -25 13 -21 12 -50 1z m57 -61 c0 -24 -27 -36 -48 -22 -23 14 -25 29
-7 47 21 20 55 5 55 -25z"/>
<path d="M1526 3864 c-9 -8 -16 -21 -16 -27 0 -25 32 -57 55 -57 23 0 55 32
55 57 0 19 -30 43 -55 43 -13 0 -31 -7 -39 -16z m62 -31 c5 -17 -26 -29 -40
-15 -6 6 -7 15 -3 22 9 14 37 9 43 -7z"/>
<path d="M1313 3423 c-8 -2 -13 -22 -13 -44 0 -36 3 -40 40 -55 22 -9 45 -25
50 -35 6 -10 10 -135 10 -297 0 -276 0 -279 -22 -298 -13 -11 -35 -25 -50 -32
-24 -10 -28 -17 -28 -52 l0 -40 325 0 325 0 0 41 c0 36 -3 41 -34 54 -66 28
-66 30 -66 333 0 158 4 281 10 291 5 10 28 26 50 35 37 15 40 19 40 55 0 48
-7 51 -108 51 -66 0 -85 -4 -132 -30 -30 -16 -68 -29 -85 -29 -16 0 -55 13
-85 29 -48 26 -65 30 -135 29 -44 0 -86 -3 -92 -6z m297 -194 c0 -42 -6 -58
-30 -89 -27 -34 -30 -45 -30 -112 0 -61 -3 -76 -20 -91 -11 -9 -20 -23 -20
-30 0 -24 31 -57 55 -57 24 0 55 33 55 57 0 7 -9 21 -20 30 -16 14 -20 30 -20
86 0 62 3 73 30 107 25 32 30 47 30 94 l0 56 43 0 c24 0 48 -5 55 -12 17 -17
17 -529 0 -546 -7 -7 -31 -12 -55 -12 l-43 0 0 48 c1 37 7 54 30 82 28 31 30
41 30 110 0 63 3 78 20 93 11 9 20 24 20 32 0 19 -36 55 -55 55 -8 0 -24 -9
-35 -20 -11 -11 -20 -27 -20 -35 0 -8 9 -24 20 -35 16 -16 20 -33 20 -86 0
-58 -4 -71 -30 -104 -24 -31 -30 -47 -30 -89 l0 -51 -43 0 c-24 0 -48 5 -55
12 -17 17 -17 529 0 546 7 7 31 12 55 12 l43 0 0 -51z m94 -144 c3 -9 -1 -18
-10 -22 -19 -7 -39 11 -30 26 10 16 33 13 40 -4z m-116 -182 c5 -17 -26 -29
-40 -15 -6 6 -7 15 -3 22 9 14 37 9 43 -7z"/>
<path d="M4256 3275 c-12 -30 -21 -975 -9 -975 7 0 13 74 18 203 8 263 3 798
-9 772z"/>
<path d="M4230 2221 c0 -35 13 -47 30 -26 16 19 9 49 -13 53 -13 3 -17 -3 -17
-27z"/>
<path d="M1607 2353 c-4 -3 -7 -58 -7 -122 1 -110 -2 -124 -47 -273 -42 -139
-50 -158 -69 -158 -17 0 -23 -8 -28 -35 -7 -36 2 -62 28 -85 13 -10 16 -36 16
-136 0 -117 -1 -124 -20 -124 -16 0 -20 -7 -20 -35 0 -28 -4 -35 -20 -35 -10
0 -23 -7 -28 -16 -8 -15 -10 -15 -15 0 -9 22 -63 21 -76 -1 -10 -17 -10 -17
-11 0 0 11 -8 17 -25 17 -24 0 -25 2 -25 76 0 61 4 81 20 101 29 37 27 100 -3
114 -13 6 -40 41 -60 79 -52 95 -60 100 -90 53 -13 -21 -34 -58 -46 -82 -13
-24 -31 -46 -42 -48 -28 -8 -30 -84 -3 -114 11 -12 14 -59 14 -230 0 -139 -4
-219 -11 -226 -5 -5 -9 -30 -7 -54 l3 -44 87 -5 87 -5 125 -103 c69 -57 126
-109 126 -117 0 -17 22 -25 70 -25 65 0 70 5 70 75 0 81 5 93 36 87 23 -4 24
-8 24 -77 0 -81 3 -85 70 -85 50 0 70 8 70 29 0 10 14 27 30 40 17 12 72 56
122 99 l92 77 90 5 91 5 3 32 c2 17 -4 45 -12 62 -13 24 -16 68 -16 228 0 181
2 201 20 228 12 18 20 47 20 71 0 35 -4 43 -22 48 -15 4 -37 31 -63 78 -22 40
-47 74 -55 76 -10 2 -31 -24 -59 -74 -24 -42 -52 -79 -62 -81 -10 -3 -21 -14
-24 -24 -9 -26 3 -75 21 -90 10 -8 14 -35 14 -95 0 -74 -2 -84 -18 -84 -10 0
-23 -5 -30 -12 -9 -9 -12 -9 -12 0 0 16 -52 15 -69 0 -11 -10 -14 -10 -18 0
-3 6 -13 12 -24 12 -15 0 -19 7 -19 31 0 22 -5 32 -20 36 -18 5 -20 15 -22 97
-3 136 -2 146 22 171 30 32 26 108 -7 113 -24 4 -25 7 -88 215 -33 111 -43
167 -29 167 3 0 19 -11 36 -25 16 -14 37 -25 46 -25 9 0 37 -14 61 -30 44 -30
65 -35 95 -24 25 9 19 32 -11 48 -16 8 -39 28 -51 46 -13 17 -37 36 -52 42
-16 5 -38 25 -49 43 -11 19 -31 37 -44 40 -17 5 -27 16 -31 36 -5 28 -32 40
-49 22z m26 -33 c-3 -11 -7 -20 -9 -20 -2 0 -4 9 -4 20 0 11 4 20 9 20 5 0 7
-9 4 -20z m87 -85 c12 -19 31 -37 43 -41 12 -4 44 -29 70 -57 45 -46 46 -49
21 -43 -15 4 -41 18 -57 32 -16 13 -37 24 -46 24 -10 0 -35 14 -56 30 -21 17
-42 30 -46 30 -5 0 -9 18 -9 39 0 40 0 40 30 30 16 -6 39 -26 50 -44z m3 -434
c1 -20 -3 -36 -10 -38 -7 -3 -13 2 -13 11 0 11 -9 16 -30 16 -20 0 -30 -5 -30
-15 0 -8 -7 -15 -15 -15 -8 0 -15 6 -15 14 0 17 -24 28 -45 20 -8 -4 -15 -12
-15 -20 0 -8 -4 -14 -10 -14 -19 0 -10 55 35 196 25 78 45 150 46 160 1 28 99
-275 102 -315z m-524 -95 c40 -71 50 -106 32 -106 -5 0 -11 9 -14 20 -7 27
-43 26 -50 -1 -6 -23 -27 -17 -27 7 0 22 -36 16 -48 -8 -11 -23 -11 -23 -11 3
-1 20 65 158 76 159 1 0 20 -33 42 -74z m321 59 c0 -9 9 -15 25 -15 14 0 24 5
23 12 -2 6 5 14 15 16 10 2 17 -2 17 -11 0 -8 7 -17 15 -21 21 -8 45 3 45 20
0 8 7 14 15 14 8 0 15 -7 15 -15 0 -9 9 -15 25 -15 16 0 25 6 25 15 0 8 9 15
20 15 16 0 20 -7 20 -30 l0 -30 -150 0 -150 0 0 30 c0 23 4 30 20 30 11 0 20
-7 20 -15z m620 -54 c39 -67 51 -111 30 -111 -5 0 -10 9 -10 20 0 14 -7 20
-21 20 -12 0 -23 -8 -26 -20 -3 -11 -9 -20 -13 -20 -4 0 -10 9 -13 20 -7 28
-43 26 -52 -2 l-8 -23 -4 22 c-3 14 11 50 34 93 21 38 39 70 40 70 1 0 20 -31
43 -69z m-600 -21 c0 -13 -20 -13 -40 0 -12 8 -9 10 13 10 15 0 27 -4 27 -10z
m70 0 c0 -13 -20 -13 -40 0 -12 8 -9 10 13 10 15 0 27 -4 27 -10z m75 0 c-3
-5 -12 -10 -20 -10 -8 0 -17 5 -20 10 -4 6 5 10 20 10 15 0 24 -4 20 -10z m70
0 c-3 -5 -13 -10 -21 -10 -8 0 -14 5 -14 10 0 6 9 10 21 10 11 0 17 -4 14 -10z
m-25 -154 c0 -122 -4 -156 -20 -156 -4 0 -10 9 -13 20 -3 12 -14 20 -27 20
-13 0 -24 -8 -27 -20 -3 -11 -9 -20 -13 -20 -4 0 -10 9 -13 20 -3 14 -14 20
-32 20 -18 0 -29 -6 -32 -20 -3 -11 -9 -20 -13 -20 -13 0 -20 59 -20 171 l0
109 105 0 105 0 0 -124z m-664 69 c4 -8 15 -15 25 -15 10 0 19 7 19 15 0 8 4
15 9 15 5 0 11 -7 15 -15 3 -8 15 -15 26 -15 11 0 20 7 20 15 0 8 5 15 10 15
6 0 13 -7 16 -15 4 -8 15 -15 25 -15 10 0 19 7 19 15 0 8 7 15 15 15 10 0 15
-10 15 -30 l0 -30 -120 0 -120 0 0 30 c0 31 16 41 26 15z m938 0 c3 -8 15 -15
26 -15 11 0 20 7 20 15 0 8 4 15 9 15 5 0 11 -7 15 -15 3 -8 15 -15 26 -15 11
0 20 7 20 15 0 8 7 15 15 15 8 0 15 -7 15 -15 0 -8 9 -15 20 -15 11 0 20 7 20
15 0 8 7 15 15 15 10 0 15 -10 15 -30 l0 -30 -120 0 -120 0 0 30 c0 32 14 40
24 15z m-748 -70 c-16 -12 -21 -12 -28 -2 -6 9 -12 9 -27 0 -10 -6 -22 -9 -26
-5 -10 10 -89 10 -96 0 -3 -5 -12 -2 -19 7 -11 13 0 15 101 15 102 -1 112 -2
95 -15z m954 10 c0 -2 -10 -9 -21 -16 -15 -8 -19 -8 -15 0 4 7 -1 11 -13 11
-11 0 -23 -4 -26 -10 -4 -6 -13 -5 -26 3 -15 9 -21 9 -27 0 -5 -8 -13 -9 -22
-3 -20 13 -43 13 -35 0 10 -16 -11 -12 -25 5 -11 13 1 15 99 15 61 0 111 -2
111 -5z m-970 -136 c0 -91 -2 -100 -16 -88 -14 11 -15 1 -8 -109 l7 -122 -77
0 -76 0 0 210 0 210 85 0 85 0 0 -101z m940 -109 l0 -210 -72 0 -71 0 7 121
c7 118 6 120 -14 114 -19 -6 -20 -2 -20 89 l0 96 85 0 85 0 0 -210z m-657 80
c3 -11 12 -20 21 -20 9 0 16 8 16 20 0 13 7 20 19 20 10 0 21 -9 24 -20 3 -11
13 -20 22 -20 9 0 19 9 22 20 3 11 13 20 23 20 10 0 20 -9 23 -20 3 -11 13
-20 22 -20 9 0 19 9 22 20 3 11 14 20 24 20 17 0 19 -9 19 -90 l0 -90 -150 0
-150 0 0 90 c0 81 2 90 19 90 10 0 21 -9 24 -20z m-233 -65 c0 -9 9 -15 25
-15 16 0 25 6 25 15 0 8 9 15 20 15 11 0 20 -7 20 -15 0 -9 9 -15 25 -15 16 0
25 6 25 15 0 8 7 15 15 15 9 0 15 -9 15 -25 l0 -25 -100 0 -100 0 0 25 c0 16
6 25 15 25 8 0 15 -7 15 -15z m534 0 c3 -8 15 -15 26 -15 11 0 23 7 26 15 4 8
12 15 19 15 7 0 15 -7 19 -15 3 -8 14 -15 25 -15 10 0 21 7 25 15 9 25 36 18
36 -10 l0 -25 -105 0 c-95 0 -105 2 -105 18 0 32 23 44 34 17z m-579 -37 c13
-28 46 -48 52 -31 7 19 43 -4 43 -27 0 -25 39 -48 51 -29 10 17 39 -6 39 -32
0 -11 2 -19 4 -19 2 0 11 -3 19 -6 9 -3 17 1 19 10 7 32 29 -1 26 -38 l-3 -37
-120 76 c-144 93 -155 102 -155 132 0 29 12 30 25 1z m785 -7 c0 -26 -13 -37
-132 -115 l-133 -85 -8 31 c-10 37 4 58 28 38 19 -15 45 2 45 31 0 10 9 23 20
29 16 9 20 8 20 -5 0 -31 31 -10 55 38 13 26 35 34 35 13 0 -15 2 -15 24 -1
13 9 26 25 29 35 8 29 17 24 17 -9z m-648 -147 c119 -76 115 -69 100 -176 l-7
-47 -122 92 -123 91 0 69 0 69 23 -14 c12 -8 70 -46 129 -84z m638 26 l0 -70
-120 -89 -119 -89 -5 31 c-3 18 -7 52 -10 75 l-4 44 126 83 c70 46 128 84 130
84 1 1 2 -30 2 -69z m-486 35 c6 -17 4 -18 -18 -9 -20 8 -21 24 -2 24 8 0 16
-7 20 -15z m80 0 c-8 -19 -23 -19 -48 0 -19 14 -18 15 17 15 28 0 35 -3 31
-15z m70 0 c-25 -19 -44 -19 -44 0 0 10 10 15 32 15 30 0 31 -1 12 -15z m66 0
c-7 -8 -19 -15 -26 -15 -8 0 -11 6 -8 15 4 8 15 15 26 15 17 0 18 -3 8 -15z
m-1 -138 c16 -158 18 -147 -29 -147 -36 0 -40 3 -40 24 0 29 -24 56 -51 56
-25 0 -59 -35 -59 -60 0 -17 -7 -20 -41 -20 -39 0 -40 1 -35 28 2 15 8 59 11
97 3 39 9 85 12 103 l5 32 108 0 107 0 12 -113z m-539 23 c0 -6 -32 -10 -76
-10 -47 0 -73 4 -69 10 3 6 37 10 76 10 39 0 69 -4 69 -10z m975 0 c4 -6 -22
-10 -69 -10 -44 0 -76 4 -76 10 0 6 30 10 69 10 39 0 73 -4 76 -10z m-715
-190 c0 -18 -11 -11 -122 76 -60 47 -112 84 -114 81 -2 -2 48 -44 111 -93 105
-82 115 -92 115 -122 0 -39 9 -45 -139 77 -98 81 -102 86 -100 120 2 20 4 39
6 43 5 10 243 -169 243 -182z m560 180 c0 -10 -227 -190 -241 -190 -25 0 2 26
113 109 67 50 123 91 125 91 2 0 3 -4 3 -10z m-830 -40 l0 -30 -75 0 -75 0 0
30 0 30 75 0 75 0 0 -30z m1000 0 l0 -30 -75 0 -75 0 0 30 0 30 75 0 75 0 0
-30z m-160 -7 c0 -23 -20 -44 -117 -123 -64 -52 -121 -97 -126 -99 -5 -2 -7
12 -5 30 3 29 18 44 121 126 65 51 121 93 123 93 2 0 4 -12 4 -27z m-423 -85
c-3 -7 -5 -2 -5 12 0 14 2 19 5 13 2 -7 2 -19 0 -25z m-37 -58 c0 -5 -23 -10
-51 -10 -31 0 -48 4 -44 10 3 6 26 10 51 10 24 0 44 -4 44 -10z m190 0 c0 -5
-20 -10 -45 -10 -25 0 -45 5 -45 10 0 6 20 10 45 10 25 0 45 -4 45 -10z m-190
-75 l0 -45 -50 0 -50 0 0 45 0 45 50 0 50 0 0 -45z m200 0 l0 -45 -50 0 -50 0
0 45 0 45 50 0 50 0 0 -45z"/>
<path d="M1611 1596 c-7 -8 -11 -35 -9 -63 3 -41 6 -48 26 -51 22 -3 23 -1 20
59 -3 63 -15 81 -37 55z"/>
<path d="M1554 1566 c-3 -8 -4 -29 -2 -48 4 -39 31 -46 36 -9 7 50 -20 95 -34
57z"/>
<path d="M1677 1573 c-4 -3 -7 -26 -7 -50 0 -32 4 -43 15 -43 11 0 15 12 15
50 0 46 -7 60 -23 43z"/>
<path d="M1140 1410 c0 -44 3 -51 18 -48 13 3 17 13 17 48 0 35 -4 45 -17 48
-15 3 -18 -4 -18 -48z"/>
<path d="M1147 1273 c-4 -3 -7 -28 -7 -55 0 -42 3 -49 18 -46 19 3 28 45 18
84 -6 24 -17 30 -29 17z"/>
<path d="M2080 1411 c0 -45 3 -51 21 -51 18 0 20 5 17 47 -2 36 -7 49 -20 51
-15 3 -18 -4 -18 -47z"/>
<path d="M2087 1274 c-4 -4 -7 -29 -7 -56 0 -42 3 -48 21 -48 18 0 20 5 17 52
-3 48 -15 68 -31 52z"/>
<path d="M1614 1326 c-3 -8 -4 -29 -2 -48 4 -39 31 -46 36 -9 7 50 -20 95 -34
57z"/>
<path d="M1537 1324 c-4 -4 -7 -23 -7 -41 0 -27 4 -34 18 -31 12 2 17 13 17
37 0 33 -13 49 -28 35z"/>
<path d="M1697 1323 c-4 -3 -7 -21 -7 -40 0 -23 5 -33 15 -33 11 0 15 11 15
40 0 38 -8 49 -23 33z"/>
<path d="M1270 1122 c0 -36 14 -62 32 -62 4 0 8 23 8 50 0 43 -3 50 -20 50
-16 0 -20 -7 -20 -38z"/>
<path d="M1340 1073 c0 -37 14 -63 33 -63 4 0 7 21 5 47 -2 36 -7 49 -20 51
-15 3 -18 -4 -18 -35z"/>
<path d="M1417 1054 c-11 -12 -8 -69 5 -82 22 -22 29 -12 26 35 -3 44 -15 62
-31 47z"/>
<path d="M1956 1163 c-3 -3 -6 -28 -6 -54 0 -39 3 -47 15 -43 10 4 15 20 15
49 0 42 -10 62 -24 48z"/>
<path d="M1880 1061 c0 -53 12 -65 30 -31 16 30 9 74 -12 78 -15 3 -18 -4 -18
-47z"/>
<path d="M1810 1004 c0 -49 2 -55 15 -44 9 8 15 30 15 56 0 32 -4 44 -15 44
-12 0 -15 -13 -15 -56z"/>
<path d="M1610 1060 c0 -44 3 -51 18 -48 13 3 17 13 17 48 0 35 -4 45 -17 48
-15 3 -18 -4 -18 -48z"/>
<path d="M1552 1053 c4 -52 28 -56 28 -4 0 30 -4 41 -16 41 -11 0 -14 -9 -12
-37z"/>
<path d="M1672 1053 c4 -52 28 -56 28 -4 0 30 -4 41 -16 41 -11 0 -14 -9 -12
-37z"/>
<path d="M1055 2097 c-24 -20 -26 -27 -20 -69 6 -42 13 -51 88 -113 87 -72
118 -89 183 -99 32 -6 45 -3 64 12 24 19 24 21 11 73 -10 41 -29 72 -75 126
-62 73 -88 86 -94 46 -3 -21 -5 -21 -57 13 -30 18 -59 34 -64 34 -5 0 -22 -10
-36 -23z m145 -69 c31 -24 33 -29 22 -53 -7 -14 -9 -38 -5 -52 l6 -27 10 25
c5 14 11 19 14 12 3 -7 9 -13 15 -13 13 0 0 79 -18 105 -8 11 -14 26 -14 35 1
25 120 -112 120 -137 0 -13 -4 -23 -10 -23 -5 0 -10 -4 -10 -10 0 -5 7 -10 15
-10 12 0 12 -3 -2 -20 -35 -40 -94 -21 -198 65 -99 81 -115 103 -28 39 36 -27
55 -31 47 -9 -4 8 -1 15 5 15 23 0 9 18 -44 55 -31 21 -58 42 -62 48 -8 13 9
3 74 -45 29 -21 55 -34 58 -28 5 8 -62 65 -92 77 -7 3 -13 9 -13 15 0 10 60
-24 110 -64z m-53 -52 c4 -5 -15 5 -40 23 -25 17 -49 37 -53 43 -4 6 14 -4 40
-22 26 -19 50 -39 53 -44z"/>
<path d="M2106 2090 l-47 -30 -18 22 -18 22 -45 -45 c-103 -105 -134 -183 -92
-230 15 -16 26 -19 63 -13 64 9 104 32 192 108 61 52 78 73 83 101 8 39 -5 69
-34 85 -27 14 -31 13 -84 -20z m64 6 c0 -3 -27 -24 -60 -47 -33 -23 -57 -46
-54 -50 6 -10 14 -7 59 26 45 34 85 58 85 53 0 -3 -27 -24 -60 -47 -33 -23
-60 -46 -60 -52 0 -15 10 -11 59 24 58 42 71 49 71 43 0 -3 -27 -24 -60 -46
-33 -22 -60 -48 -60 -56 0 -11 14 -6 53 21 l52 37 -55 -51 c-67 -62 -146 -111
-181 -111 -28 0 -69 35 -48 42 9 3 9 9 -1 25 -12 19 -10 25 14 58 39 50 97
107 103 101 3 -3 -3 -20 -14 -38 -22 -38 -37 -108 -22 -108 5 0 14 10 19 23 8
21 9 21 9 -5 1 -16 6 -28 11 -28 13 0 13 46 0 70 -8 16 -3 24 33 53 48 39 107
74 107 63z"/>
</g>
</svg>
