<svg xmlns="http://www.w3.org/2000/svg" xmlns:xlink="http://www.w3.org/1999/xlink" width="512" zoomAndPan="magnify" viewBox="0 0 384 383.999986" height="512" preserveAspectRatio="xMidYMid meet" version="1.0"><defs><clipPath id="d61dca338e"><path d="M 1.082031 3.667969 L 382 3.667969 L 382 384 L 1.082031 384 Z M 1.082031 3.667969 " clip-rule="nonzero"/></clipPath></defs><g clip-path="url(#d61dca338e)"><path fill="#FFFFFF" d="M 381.820312 193.019531 C 381.820312 298.117188 296.550781 383.386719 191.453125 383.386719 C 86.351562 383.386719 1.082031 298.117188 1.082031 193.019531 C 1.082031 87.921875 86.351562 2.652344 191.453125 2.652344 C 296.550781 2.652344 381.820312 87.921875 381.820312 193.019531 Z M 16.3125 193.019531 C 16.3125 289.710938 94.761719 368.15625 191.453125 368.15625 C 288.140625 368.15625 366.589844 289.710938 366.589844 193.019531 C 366.589844 96.328125 288.140625 17.882812 191.453125 17.882812 C 94.761719 17.882812 16.3125 96.328125 16.3125 193.019531 Z M 16.3125 193.019531 " fill-opacity="1" fill-rule="nonzero"/></g><path fill="#FFFFFF" d="M 191.453125 231.09375 C 145.207031 231.09375 107.691406 193.574219 107.691406 147.332031 C 107.691406 101.089844 145.207031 63.570312 191.453125 63.570312 C 237.695312 63.570312 275.210938 101.089844 275.210938 147.332031 C 275.210938 193.574219 237.695312 231.09375 191.453125 231.09375 Z M 191.453125 215.863281 C 229.285156 215.863281 259.984375 185.167969 259.984375 147.332031 C 259.984375 109.496094 229.285156 78.800781 191.453125 78.800781 C 153.617188 78.800781 122.917969 109.496094 122.917969 147.332031 C 122.917969 185.167969 153.617188 215.863281 191.453125 215.863281 Z M 191.453125 215.863281 " fill-opacity="1" fill-rule="evenodd"/><path fill="#FFFFFF" d="M 138.148438 276.78125 L 244.753906 276.78125 C 280.050781 276.78125 305.355469 288.679688 321.21875 308.507812 C 323.835938 311.761719 328.675781 312.316406 331.925781 309.621094 C 335.257812 307.003906 335.734375 302.242188 333.117188 298.992188 C 314.316406 275.511719 284.652344 261.550781 244.753906 261.550781 L 138.148438 261.550781 C 98.25 261.550781 68.585938 275.511719 49.785156 298.992188 C 47.167969 302.242188 47.644531 307.003906 50.976562 309.621094 C 54.226562 312.316406 59.066406 311.761719 61.683594 308.507812 C 77.546875 288.679688 102.851562 276.78125 138.148438 276.78125 Z M 138.148438 276.78125 " fill-opacity="1" fill-rule="nonzero"/></svg>
