<svg xmlns="http://www.w3.org/2000/svg" xmlns:xlink="http://www.w3.org/1999/xlink" width="1024" zoomAndPan="magnify" viewBox="0 0 768 383.999986" height="512" preserveAspectRatio="xMidYMid meet" version="1.0"><defs><clipPath id="2b238c0915"><path d="M 67 7 L 706 7 L 706 375.75 L 67 375.75 Z M 67 7 " clip-rule="nonzero"/></clipPath></defs><g clip-path="url(#2b238c0915)"><path fill="#FFFFFF" d="M 580.523438 114.496094 C 579.636719 111.335938 578.648438 108.210938 577.550781 105.117188 C 576.453125 102.023438 575.253906 98.972656 573.953125 95.960938 C 572.648438 92.949219 571.246094 89.988281 569.746094 87.070312 C 568.242188 84.152344 566.644531 81.289062 564.949219 78.480469 C 563.253906 75.671875 561.464844 72.921875 559.585938 70.234375 C 557.707031 67.546875 555.734375 64.925781 553.679688 62.367188 C 551.621094 59.8125 549.480469 57.328125 547.253906 54.917969 C 545.03125 52.507812 542.726562 50.171875 540.34375 47.917969 C 537.964844 45.660156 535.507812 43.488281 532.980469 41.398438 C 530.449219 39.308594 527.855469 37.304688 525.191406 35.390625 C 522.527344 33.472656 519.800781 31.648438 517.015625 29.917969 C 514.226562 28.1875 511.386719 26.550781 508.488281 25.011719 C 505.589844 23.472656 502.644531 22.03125 499.652344 20.6875 C 496.65625 19.347656 493.621094 18.109375 490.542969 16.972656 C 487.464844 15.835938 484.355469 14.804688 481.207031 13.875 C 478.058594 12.949219 474.882812 12.128906 471.683594 11.417969 C 468.480469 10.703125 465.257812 10.101562 462.011719 9.605469 C 458.769531 9.109375 455.511719 8.726562 452.246094 8.449219 C 448.976562 8.171875 445.699219 8.007812 442.417969 7.953125 C 439.140625 7.898438 435.859375 7.953125 432.582031 8.121094 C 429.308594 8.285156 426.039062 8.5625 422.78125 8.949219 C 419.523438 9.335938 416.28125 9.832031 413.058594 10.433594 C 409.832031 11.039062 406.632812 11.753906 403.457031 12.574219 C 400.277344 13.394531 397.132812 14.320312 394.019531 15.355469 C 390.90625 16.386719 387.828125 17.523438 384.792969 18.765625 C 381.753906 20.003906 378.761719 21.34375 375.816406 22.789062 C 372.867188 24.230469 369.972656 25.769531 367.128906 27.40625 C 364.289062 29.042969 361.503906 30.773438 358.777344 32.597656 C 356.050781 34.425781 353.386719 36.339844 350.789062 38.34375 C 348.191406 40.347656 345.667969 42.4375 343.210938 44.613281 C 340.753906 46.789062 338.371094 49.042969 336.066406 51.378906 C 333.765625 53.714844 331.539062 56.125 329.398438 58.609375 C 328.039062 57.378906 326.648438 56.191406 325.21875 55.046875 C 323.789062 53.902344 322.328125 52.796875 320.835938 51.738281 C 319.34375 50.679688 317.820312 49.664062 316.265625 48.691406 C 314.710938 47.722656 313.128906 46.800781 311.523438 45.925781 C 309.914062 45.046875 308.28125 44.21875 306.625 43.441406 C 304.964844 42.660156 303.289062 41.933594 301.585938 41.25 C 299.886719 40.570312 298.167969 39.941406 296.429688 39.363281 C 294.691406 38.785156 292.9375 38.257812 291.167969 37.785156 C 289.402344 37.308594 287.621094 36.886719 285.824219 36.519531 C 284.03125 36.148438 282.230469 35.832031 280.417969 35.570312 C 278.605469 35.308594 276.785156 35.097656 274.960938 34.941406 C 273.136719 34.789062 271.308594 34.6875 269.476562 34.640625 C 267.644531 34.59375 265.816406 34.601562 263.984375 34.660156 C 262.152344 34.722656 260.328125 34.839844 258.503906 35.007812 C 256.679688 35.179688 254.863281 35.402344 253.050781 35.679688 C 251.242188 35.957031 249.441406 36.285156 247.652344 36.667969 C 245.859375 37.050781 244.082031 37.488281 242.316406 37.976562 C 240.550781 38.464844 238.800781 39.007812 237.070312 39.597656 C 235.335938 40.191406 233.621094 40.835938 231.925781 41.527344 C 230.234375 42.222656 228.558594 42.964844 226.910156 43.757812 C 225.257812 44.550781 223.632812 45.390625 222.03125 46.28125 C 220.429688 47.167969 218.855469 48.105469 217.308594 49.085938 C 215.761719 50.066406 214.246094 51.09375 212.761719 52.167969 C 211.277344 53.238281 209.824219 54.351562 208.40625 55.511719 C 206.984375 56.667969 205.601562 57.867188 204.253906 59.105469 C 202.90625 60.34375 201.59375 61.625 200.324219 62.941406 C 199.050781 64.257812 197.816406 65.609375 196.625 67 C 195.433594 68.390625 194.28125 69.8125 193.171875 71.273438 C 192.0625 72.730469 191 74.21875 189.980469 75.742188 C 188.960938 77.261719 187.984375 78.8125 187.054688 80.390625 C 186.128906 81.96875 185.246094 83.574219 184.414062 85.203125 C 183.578125 86.835938 182.792969 88.488281 182.058594 90.164062 C 175.070312 88.507812 167.984375 87.683594 160.800781 87.695312 C 158.082031 87.695312 155.371094 87.8125 152.667969 88.050781 C 149.960938 88.289062 147.269531 88.640625 144.59375 89.117188 C 141.917969 89.589844 139.269531 90.175781 136.648438 90.882812 C 134.023438 91.589844 131.4375 92.40625 128.886719 93.339844 C 126.332031 94.269531 123.828125 95.3125 121.367188 96.464844 C 118.90625 97.613281 116.5 98.871094 114.152344 100.234375 C 111.800781 101.597656 109.515625 103.058594 107.292969 104.621094 C 105.070312 106.183594 102.921875 107.839844 100.84375 109.589844 C 98.765625 111.339844 96.769531 113.179688 94.855469 115.105469 C 92.9375 117.03125 91.109375 119.039062 89.371094 121.125 C 87.632812 123.210938 85.984375 125.367188 84.433594 127.597656 C 82.882812 129.828125 81.433594 132.121094 80.082031 134.476562 C 78.734375 136.835938 77.488281 139.246094 76.347656 141.714844 C 75.210938 144.179688 74.183594 146.691406 73.261719 149.246094 C 72.34375 151.804688 71.539062 154.394531 70.847656 157.023438 C 70.15625 159.648438 69.582031 162.300781 69.121094 164.976562 C 68.660156 167.65625 68.320312 170.347656 68.097656 173.054688 C 67.875 175.761719 67.769531 178.472656 67.785156 181.191406 C 67.796875 183.90625 67.929688 186.617188 68.183594 189.320312 C 68.433594 192.027344 68.804688 194.714844 69.289062 197.386719 C 69.777344 200.058594 70.382812 202.707031 71.101562 205.324219 C 71.820312 207.945312 72.652344 210.527344 73.597656 213.074219 C 74.542969 215.621094 75.597656 218.121094 76.761719 220.574219 C 77.925781 223.03125 79.195312 225.429688 80.570312 227.773438 C 81.945312 230.113281 83.421875 232.394531 84.996094 234.605469 C 86.570312 236.820312 88.238281 238.960938 90 241.027344 C 91.761719 243.097656 93.609375 245.082031 95.546875 246.988281 C 97.480469 248.894531 99.496094 250.710938 101.59375 252.441406 C 103.6875 254.167969 105.855469 255.804688 108.09375 257.34375 C 110.332031 258.882812 112.632812 260.320312 114.996094 261.65625 C 117.359375 262.996094 119.777344 264.226562 122.25 265.351562 C 124.722656 266.476562 127.238281 267.492188 129.800781 268.398438 C 130.625 268.6875 131.46875 268.894531 132.332031 269.019531 C 133.195312 269.144531 134.0625 269.183594 134.933594 269.136719 C 135.804688 269.089844 136.664062 268.960938 137.507812 268.746094 C 138.351562 268.527344 139.167969 268.234375 139.957031 267.855469 C 140.742188 267.480469 141.488281 267.03125 142.183594 266.507812 C 142.882812 265.984375 143.523438 265.398438 144.109375 264.75 C 144.691406 264.101562 145.207031 263.402344 145.652344 262.652344 C 146.097656 261.902344 146.464844 261.117188 146.753906 260.292969 C 147.046875 259.46875 147.253906 258.628906 147.378906 257.761719 C 147.503906 256.898438 147.542969 256.03125 147.496094 255.160156 C 147.449219 254.289062 147.316406 253.433594 147.101562 252.585938 C 146.886719 251.742188 146.589844 250.925781 146.214844 250.136719 C 145.835938 249.351562 145.386719 248.605469 144.867188 247.910156 C 144.34375 247.210938 143.757812 246.570312 143.109375 245.984375 C 142.460938 245.402344 141.761719 244.886719 141.007812 244.441406 C 140.257812 243.996094 139.472656 243.628906 138.648438 243.339844 C 137.609375 242.976562 136.574219 242.585938 135.550781 242.171875 C 134.53125 241.757812 133.519531 241.316406 132.515625 240.851562 C 131.515625 240.386719 130.527344 239.898438 129.550781 239.382812 C 128.574219 238.871094 127.609375 238.332031 126.660156 237.769531 C 125.710938 237.207031 124.777344 236.621094 123.855469 236.011719 C 122.933594 235.402344 122.03125 234.773438 121.140625 234.117188 C 120.253906 233.464844 119.378906 232.789062 118.523438 232.089844 C 117.667969 231.394531 116.832031 230.675781 116.011719 229.9375 C 115.191406 229.195312 114.390625 228.4375 113.609375 227.660156 C 112.828125 226.878906 112.066406 226.082031 111.324219 225.265625 C 110.582031 224.449219 109.863281 223.613281 109.160156 222.757812 C 108.460938 221.90625 107.78125 221.035156 107.125 220.148438 C 106.46875 219.261719 105.832031 218.359375 105.222656 217.441406 C 104.609375 216.523438 104.019531 215.589844 103.457031 214.640625 C 102.890625 213.695312 102.347656 212.734375 101.832031 211.757812 C 101.3125 210.785156 100.820312 209.796875 100.351562 208.796875 C 99.882812 207.796875 99.441406 206.789062 99.023438 205.765625 C 98.605469 204.746094 98.210938 203.714844 97.84375 202.671875 C 97.476562 201.632812 97.136719 200.582031 96.824219 199.523438 C 96.507812 198.464844 96.222656 197.402344 95.960938 196.328125 C 95.699219 195.257812 95.464844 194.179688 95.257812 193.09375 C 95.050781 192.011719 94.867188 190.921875 94.714844 189.828125 C 94.5625 188.734375 94.4375 187.640625 94.335938 186.539062 C 94.238281 185.441406 94.167969 184.339844 94.125 183.238281 C 94.082031 182.132812 94.0625 181.03125 94.074219 179.925781 C 94.085938 178.824219 94.125 177.722656 94.191406 176.617188 C 94.257812 175.515625 94.351562 174.417969 94.472656 173.320312 C 94.59375 172.222656 94.742188 171.128906 94.917969 170.039062 C 95.09375 168.953125 95.292969 167.867188 95.523438 166.785156 C 95.753906 165.707031 96.007812 164.632812 96.292969 163.566406 C 96.574219 162.5 96.886719 161.441406 97.222656 160.390625 C 97.558594 159.339844 97.917969 158.296875 98.304688 157.261719 C 98.695312 156.230469 99.105469 155.207031 99.546875 154.195312 C 99.984375 153.179688 100.449219 152.179688 100.9375 151.191406 C 101.425781 150.199219 101.9375 149.222656 102.476562 148.261719 C 103.011719 147.296875 103.574219 146.347656 104.160156 145.410156 C 104.742188 144.472656 105.351562 143.550781 105.980469 142.648438 C 106.613281 141.742188 107.265625 140.851562 107.941406 139.976562 C 108.613281 139.105469 109.3125 138.25 110.027344 137.410156 C 110.746094 136.570312 111.484375 135.75 112.242188 134.949219 C 113 134.148438 113.777344 133.367188 114.574219 132.601562 C 115.375 131.839844 116.1875 131.097656 117.023438 130.375 C 117.859375 129.652344 118.710938 128.949219 119.578125 128.269531 C 120.449219 127.589844 121.335938 126.933594 122.238281 126.296875 C 123.140625 125.660156 124.054688 125.046875 124.988281 124.457031 C 125.921875 123.867188 126.867188 123.300781 127.828125 122.757812 C 128.789062 122.214844 129.765625 121.699219 130.75 121.203125 C 131.738281 120.707031 132.734375 120.238281 133.746094 119.792969 C 134.757812 119.351562 135.777344 118.929688 136.808594 118.539062 C 137.839844 118.144531 138.878906 117.777344 139.929688 117.433594 C 140.980469 117.09375 142.035156 116.777344 143.101562 116.488281 C 144.167969 116.199219 145.238281 115.9375 146.316406 115.699219 C 147.394531 115.464844 148.476562 115.253906 149.566406 115.074219 C 150.65625 114.890625 151.746094 114.738281 152.84375 114.609375 C 153.941406 114.484375 155.039062 114.382812 156.140625 114.308594 C 157.242188 114.238281 158.34375 114.191406 159.449219 114.175781 C 160.550781 114.15625 161.652344 114.167969 162.757812 114.203125 C 163.859375 114.242188 164.960938 114.308594 166.0625 114.398438 C 167.160156 114.492188 168.257812 114.609375 169.351562 114.757812 C 170.445312 114.90625 171.535156 115.078125 172.621094 115.28125 C 173.707031 115.480469 174.785156 115.710938 175.859375 115.964844 C 176.933594 116.21875 178 116.5 179.058594 116.808594 C 180.121094 117.117188 181.171875 117.453125 182.214844 117.8125 C 183.257812 118.171875 184.289062 118.558594 185.3125 118.972656 C 185.75 119.144531 186.191406 119.296875 186.640625 119.421875 C 187.089844 119.546875 187.542969 119.652344 188.003906 119.730469 C 188.464844 119.808594 188.929688 119.863281 189.394531 119.890625 C 189.859375 119.921875 190.328125 119.925781 190.792969 119.90625 C 191.261719 119.890625 191.726562 119.84375 192.1875 119.777344 C 192.648438 119.707031 193.105469 119.617188 193.558594 119.5 C 194.011719 119.382812 194.457031 119.242188 194.894531 119.078125 C 195.332031 118.914062 195.757812 118.730469 196.175781 118.519531 C 196.59375 118.3125 197 118.082031 197.394531 117.832031 C 197.789062 117.578125 198.167969 117.308594 198.53125 117.015625 C 198.898438 116.722656 199.246094 116.414062 199.578125 116.085938 C 199.910156 115.757812 200.226562 115.414062 200.519531 115.050781 C 200.816406 114.691406 201.09375 114.316406 201.347656 113.925781 C 201.605469 113.535156 201.839844 113.128906 202.054688 112.714844 C 202.269531 112.300781 202.460938 111.875 202.628906 111.4375 C 202.796875 111.003906 202.945312 110.558594 203.066406 110.109375 C 203.441406 108.714844 203.859375 107.335938 204.324219 105.972656 C 204.789062 104.605469 205.296875 103.253906 205.847656 101.921875 C 206.402344 100.589844 206.996094 99.277344 207.636719 97.984375 C 208.273438 96.6875 208.953125 95.417969 209.675781 94.167969 C 210.398438 92.917969 211.160156 91.695312 211.960938 90.496094 C 212.761719 89.296875 213.601562 88.125 214.480469 86.980469 C 215.359375 85.835938 216.273438 84.71875 217.226562 83.636719 C 218.175781 82.550781 219.164062 81.5 220.183594 80.476562 C 221.203125 79.457031 222.253906 78.472656 223.339844 77.519531 C 224.425781 76.570312 225.539062 75.65625 226.683594 74.777344 C 227.828125 73.898438 229 73.058594 230.199219 72.253906 C 231.398438 71.453125 232.621094 70.691406 233.871094 69.96875 C 235.121094 69.25 236.390625 68.566406 237.6875 67.929688 C 238.980469 67.289062 240.292969 66.695312 241.625 66.140625 C 242.957031 65.589844 244.308594 65.082031 245.671875 64.617188 C 247.039062 64.152344 248.417969 63.730469 249.8125 63.359375 C 251.203125 62.984375 252.609375 62.65625 254.023438 62.371094 C 255.4375 62.089844 256.859375 61.855469 258.292969 61.664062 C 259.722656 61.476562 261.15625 61.332031 262.597656 61.238281 C 264.035156 61.140625 265.476562 61.09375 266.917969 61.089844 C 268.363281 61.089844 269.804688 61.136719 271.242188 61.226562 C 272.683594 61.320312 274.117188 61.460938 275.546875 61.648438 C 276.980469 61.832031 278.402344 62.066406 279.816406 62.347656 C 281.234375 62.625 282.636719 62.953125 284.03125 63.324219 C 285.425781 63.695312 286.804688 64.113281 288.171875 64.574219 C 289.539062 65.035156 290.890625 65.542969 292.222656 66.09375 C 293.558594 66.640625 294.871094 67.234375 296.167969 67.871094 C 297.460938 68.507812 298.734375 69.1875 299.984375 69.90625 C 301.234375 70.625 302.460938 71.382812 303.660156 72.183594 C 304.863281 72.984375 306.035156 73.820312 307.183594 74.695312 C 308.328125 75.574219 309.445312 76.484375 310.53125 77.433594 C 311.617188 78.382812 312.671875 79.367188 313.695312 80.386719 C 307.347656 91.113281 302.472656 102.472656 299.078125 114.46875 C 296.941406 114.585938 294.808594 114.753906 292.679688 114.972656 C 290.550781 115.191406 288.429688 115.464844 286.3125 115.785156 C 284.199219 116.109375 282.089844 116.480469 279.992188 116.90625 C 277.894531 117.328125 275.808594 117.804688 273.734375 118.328125 C 271.660156 118.855469 269.597656 119.429688 267.550781 120.054688 C 265.503906 120.675781 263.476562 121.351562 261.460938 122.074219 C 259.445312 122.796875 257.449219 123.566406 255.472656 124.386719 C 253.496094 125.207031 251.539062 126.070312 249.605469 126.984375 C 247.671875 127.898438 245.757812 128.859375 243.867188 129.863281 C 241.980469 130.871094 240.117188 131.921875 238.277344 133.015625 C 236.441406 134.113281 234.628906 135.253906 232.847656 136.4375 C 231.0625 137.621094 229.3125 138.84375 227.585938 140.113281 C 225.863281 141.382812 224.171875 142.691406 222.511719 144.039062 C 220.851562 145.390625 219.222656 146.78125 217.628906 148.207031 C 216.035156 149.636719 214.476562 151.101562 212.957031 152.605469 C 211.433594 154.109375 209.949219 155.652344 208.5 157.226562 C 207.050781 158.800781 205.640625 160.410156 204.273438 162.054688 C 202.902344 163.699219 201.570312 165.375 200.28125 167.082031 C 198.992188 168.789062 197.746094 170.527344 196.539062 172.296875 C 195.335938 174.066406 194.171875 175.863281 193.054688 177.6875 C 191.933594 179.511719 190.859375 181.359375 189.832031 183.238281 C 188.800781 185.113281 187.820312 187.011719 186.882812 188.9375 C 185.945312 190.859375 185.054688 192.804688 184.210938 194.773438 C 183.367188 196.738281 182.570312 198.726562 181.824219 200.730469 C 181.078125 202.734375 180.378906 204.757812 179.726562 206.796875 C 179.078125 208.835938 178.476562 210.890625 177.925781 212.957031 C 177.378906 215.027344 176.875 217.105469 176.425781 219.199219 C 175.976562 221.289062 175.578125 223.390625 175.230469 225.503906 C 174.878906 227.613281 174.582031 229.734375 174.335938 231.859375 C 174.089844 233.984375 173.894531 236.117188 173.753906 238.25 C 173.609375 240.386719 173.519531 242.523438 173.476562 244.664062 C 173.4375 246.804688 173.449219 248.941406 173.515625 251.082031 C 173.578125 253.21875 173.691406 255.355469 173.859375 257.488281 C 174.027344 259.625 174.242188 261.75 174.511719 263.875 C 174.78125 265.996094 175.105469 268.113281 175.476562 270.21875 C 175.847656 272.328125 176.269531 274.425781 176.742188 276.511719 C 177.214844 278.597656 177.738281 280.675781 178.3125 282.734375 C 178.886719 284.796875 179.507812 286.84375 180.179688 288.875 C 180.851562 290.90625 181.574219 292.921875 182.34375 294.917969 C 183.113281 296.914062 183.929688 298.894531 184.792969 300.851562 C 185.660156 302.808594 186.570312 304.742188 187.53125 306.65625 C 188.488281 308.570312 189.492188 310.457031 190.542969 312.324219 C 191.59375 314.1875 192.6875 316.027344 193.824219 317.839844 C 194.964844 319.652344 196.144531 321.433594 197.371094 323.1875 C 198.597656 324.945312 199.863281 326.667969 201.171875 328.363281 C 202.480469 330.054688 203.828125 331.714844 205.214844 333.34375 C 206.605469 334.972656 208.03125 336.566406 209.496094 338.125 C 210.960938 339.6875 212.464844 341.210938 214.003906 342.695312 C 215.542969 344.183594 217.117188 345.632812 218.726562 347.042969 C 220.332031 348.453125 221.976562 349.824219 223.652344 351.15625 C 225.328125 352.488281 227.035156 353.777344 228.769531 355.027344 C 230.507812 356.277344 232.273438 357.484375 234.070312 358.648438 C 235.867188 359.8125 237.691406 360.929688 239.539062 362.007812 C 241.390625 363.082031 243.265625 364.113281 245.164062 365.097656 C 247.066406 366.082031 248.988281 367.019531 250.933594 367.914062 C 252.878906 368.804688 254.84375 369.648438 256.828125 370.449219 C 258.816406 371.246094 260.820312 371.992188 262.839844 372.695312 C 264.863281 373.394531 266.902344 374.046875 268.957031 374.648438 C 271.007812 375.25 273.074219 375.800781 275.15625 376.304688 C 277.238281 376.804688 279.328125 377.257812 281.429688 377.65625 C 283.53125 378.058594 285.644531 378.410156 287.761719 378.707031 C 289.878906 379.007812 292.003906 379.253906 294.136719 379.449219 C 296.269531 379.648438 298.402344 379.792969 300.539062 379.882812 C 302.679688 379.976562 304.816406 380.019531 306.957031 380.007812 L 373.390625 380.007812 L 373.390625 393.296875 C 373.390625 394.167969 373.476562 395.03125 373.648438 395.886719 C 373.816406 396.742188 374.070312 397.574219 374.402344 398.382812 C 374.738281 399.1875 375.148438 399.953125 375.632812 400.679688 C 376.117188 401.402344 376.667969 402.074219 377.285156 402.691406 C 377.902344 403.308594 378.570312 403.859375 379.296875 404.34375 C 380.023438 404.828125 380.789062 405.238281 381.59375 405.570312 C 382.402344 405.90625 383.230469 406.15625 384.085938 406.328125 C 384.941406 406.5 385.808594 406.582031 386.679688 406.582031 C 387.550781 406.582031 388.414062 406.5 389.273438 406.328125 C 390.128906 406.15625 390.957031 405.90625 391.765625 405.570312 C 392.570312 405.238281 393.335938 404.828125 394.0625 404.34375 C 394.785156 403.859375 395.457031 403.308594 396.074219 402.691406 C 396.691406 402.074219 397.242188 401.402344 397.726562 400.679688 C 398.210938 399.953125 398.621094 399.1875 398.953125 398.382812 C 399.289062 397.574219 399.539062 396.742188 399.710938 395.886719 C 399.882812 395.03125 399.964844 394.167969 399.964844 393.296875 L 399.964844 380.007812 L 572.699219 380.007812 C 574.832031 380.011719 576.964844 379.960938 579.097656 379.859375 C 581.230469 379.757812 583.359375 379.605469 585.484375 379.402344 C 587.609375 379.195312 589.726562 378.941406 591.839844 378.636719 C 593.953125 378.328125 596.054688 377.972656 598.152344 377.566406 C 600.246094 377.15625 602.332031 376.699219 604.402344 376.191406 C 606.476562 375.683594 608.535156 375.125 610.582031 374.519531 C 612.628906 373.910156 614.660156 373.253906 616.675781 372.550781 C 618.6875 371.84375 620.6875 371.089844 622.664062 370.289062 C 624.644531 369.488281 626.601562 368.640625 628.539062 367.742188 C 630.476562 366.847656 632.390625 365.90625 634.28125 364.917969 C 636.175781 363.929688 638.042969 362.898438 639.882812 361.820312 C 641.726562 360.742188 643.542969 359.617188 645.332031 358.453125 C 647.117188 357.289062 648.878906 356.078125 650.609375 354.828125 C 652.339844 353.578125 654.035156 352.289062 655.703125 350.957031 C 657.371094 349.625 659.007812 348.253906 660.609375 346.839844 C 662.210938 345.429688 663.777344 343.980469 665.308594 342.496094 C 666.839844 341.007812 668.335938 339.484375 669.796875 337.925781 C 671.253906 336.367188 672.671875 334.777344 674.054688 333.148438 C 675.4375 331.523438 676.777344 329.863281 678.082031 328.171875 C 679.382812 326.480469 680.644531 324.757812 681.863281 323.003906 C 683.082031 321.253906 684.257812 319.472656 685.390625 317.664062 C 686.523438 315.855469 687.609375 314.019531 688.65625 312.15625 C 689.699219 310.296875 690.699219 308.410156 691.652344 306.5 C 692.605469 304.589844 693.511719 302.660156 694.375 300.707031 C 695.234375 298.75 696.046875 296.777344 696.8125 294.785156 C 697.578125 292.792969 698.296875 290.785156 698.964844 288.757812 C 699.632812 286.730469 700.253906 284.6875 700.820312 282.628906 C 701.390625 280.574219 701.914062 278.503906 702.382812 276.421875 C 702.855469 274.339844 703.273438 272.246094 703.644531 270.144531 C 704.011719 268.042969 704.332031 265.933594 704.597656 263.816406 C 704.867188 261.699219 705.085938 259.574219 705.25 257.445312 C 705.414062 255.316406 705.53125 253.1875 705.59375 251.054688 C 705.65625 248.917969 705.667969 246.785156 705.625 244.652344 C 705.585938 242.519531 705.496094 240.386719 705.351562 238.253906 C 705.210938 236.125 705.015625 234 704.769531 231.878906 C 704.527344 229.761719 704.230469 227.648438 703.882812 225.539062 C 703.535156 223.433594 703.136719 221.335938 702.691406 219.25 C 702.242188 217.164062 701.746094 215.089844 701.195312 213.027344 C 700.648438 210.960938 700.050781 208.914062 699.402344 206.878906 C 698.757812 204.84375 698.0625 202.828125 697.316406 200.828125 C 696.574219 198.828125 695.78125 196.84375 694.941406 194.882812 C 694.101562 192.921875 693.21875 190.980469 692.285156 189.058594 C 691.351562 187.140625 690.371094 185.242188 689.347656 183.371094 C 688.324219 181.496094 687.253906 179.652344 686.140625 177.828125 C 685.027344 176.007812 683.871094 174.214844 682.671875 172.449219 C 681.472656 170.683594 680.230469 168.949219 678.945312 167.242188 C 677.664062 165.539062 676.339844 163.863281 674.972656 162.222656 C 673.609375 160.582031 672.207031 158.972656 670.765625 157.398438 C 669.324219 155.824219 667.84375 154.285156 666.328125 152.78125 C 664.8125 151.28125 663.261719 149.8125 661.675781 148.386719 C 660.089844 146.957031 658.46875 145.570312 656.816406 144.21875 C 655.164062 142.867188 653.476562 141.558594 651.761719 140.289062 C 650.042969 139.023438 648.296875 137.796875 646.523438 136.609375 C 644.746094 135.425781 642.945312 134.285156 641.113281 133.1875 C 639.28125 132.089844 637.425781 131.035156 635.546875 130.027344 C 633.664062 129.019531 631.757812 128.058594 629.832031 127.140625 C 627.902344 126.222656 625.953125 125.355469 623.984375 124.53125 C 622.015625 123.707031 620.027344 122.933594 618.019531 122.207031 C 616.011719 121.480469 613.988281 120.800781 611.949219 120.171875 C 609.910156 119.542969 607.855469 118.964844 605.789062 118.433594 C 603.722656 117.902344 601.640625 117.421875 599.550781 116.992188 C 597.460938 116.5625 595.359375 116.183594 593.25 115.855469 C 591.140625 115.527344 589.027344 115.25 586.902344 115.019531 C 584.78125 114.792969 582.65625 114.617188 580.523438 114.496094 Z M 572.699219 353.433594 L 306.957031 353.433594 C 305.21875 353.433594 303.476562 353.386719 301.738281 353.300781 C 300.003906 353.210938 298.265625 353.082031 296.535156 352.90625 C 294.804688 352.734375 293.078125 352.519531 291.355469 352.261719 C 289.636719 352.003906 287.921875 351.703125 286.214844 351.359375 C 284.511719 351.019531 282.8125 350.632812 281.125 350.207031 C 279.4375 349.78125 277.761719 349.316406 276.097656 348.808594 C 274.433594 348.300781 272.78125 347.753906 271.144531 347.164062 C 269.507812 346.574219 267.886719 345.945312 266.28125 345.277344 C 264.671875 344.609375 263.082031 343.902344 261.511719 343.15625 C 259.941406 342.40625 258.386719 341.625 256.855469 340.800781 C 255.320312 339.976562 253.808594 339.117188 252.316406 338.21875 C 250.828125 337.324219 249.359375 336.390625 247.914062 335.421875 C 246.46875 334.453125 245.046875 333.449219 243.652344 332.410156 C 242.253906 331.371094 240.886719 330.296875 239.542969 329.191406 C 238.199219 328.085938 236.882812 326.945312 235.597656 325.773438 C 234.308594 324.605469 233.050781 323.402344 231.824219 322.167969 C 230.59375 320.9375 229.398438 319.675781 228.230469 318.382812 C 227.066406 317.09375 225.929688 315.773438 224.828125 314.425781 C 223.726562 313.078125 222.660156 311.707031 221.625 310.304688 C 220.589844 308.90625 219.59375 307.480469 218.628906 306.035156 C 217.664062 304.585938 216.734375 303.113281 215.84375 301.617188 C 214.953125 300.125 214.097656 298.609375 213.28125 297.074219 C 212.460938 295.535156 211.683594 293.980469 210.941406 292.40625 C 210.203125 290.832031 209.5 289.242188 208.835938 287.632812 C 208.171875 286.023438 207.550781 284.398438 206.96875 282.757812 C 206.382812 281.121094 205.839844 279.46875 205.339844 277.800781 C 204.835938 276.132812 204.378906 274.457031 203.957031 272.769531 C 203.539062 271.078125 203.160156 269.382812 202.824219 267.675781 C 202.488281 265.964844 202.195312 264.253906 201.941406 262.53125 C 201.691406 260.808594 201.480469 259.082031 201.3125 257.347656 C 201.144531 255.617188 201.019531 253.882812 200.9375 252.144531 C 200.855469 250.40625 200.816406 248.667969 200.820312 246.925781 C 200.824219 245.1875 200.871094 243.445312 200.960938 241.710938 C 201.050781 239.972656 201.179688 238.238281 201.355469 236.503906 C 201.527344 234.773438 201.746094 233.046875 202.003906 231.328125 C 202.261719 229.605469 202.5625 227.890625 202.90625 226.1875 C 203.25 224.480469 203.632812 222.785156 204.0625 221.097656 C 204.488281 219.410156 204.953125 217.734375 205.464844 216.070312 C 205.972656 214.40625 206.519531 212.753906 207.109375 211.117188 C 207.699219 209.480469 208.328125 207.859375 209 206.253906 C 209.667969 204.644531 210.375 203.058594 211.125 201.484375 C 211.871094 199.914062 212.65625 198.363281 213.480469 196.828125 C 214.304688 195.296875 215.164062 193.785156 216.0625 192.292969 C 216.960938 190.804688 217.894531 189.335938 218.863281 187.890625 C 219.835938 186.445312 220.839844 185.027344 221.878906 183.628906 C 222.917969 182.234375 223.992188 180.867188 225.097656 179.523438 C 226.207031 178.179688 227.34375 176.867188 228.515625 175.578125 C 229.6875 174.292969 230.890625 173.035156 232.125 171.808594 C 233.355469 170.578125 234.621094 169.382812 235.910156 168.21875 C 237.203125 167.050781 238.523438 165.917969 239.871094 164.816406 C 241.21875 163.714844 242.59375 162.648438 243.992188 161.617188 C 245.394531 160.582031 246.816406 159.582031 248.265625 158.621094 C 249.714844 157.65625 251.1875 156.730469 252.683594 155.839844 C 254.175781 154.949219 255.691406 154.09375 257.230469 153.277344 C 258.765625 152.460938 260.320312 151.679688 261.894531 150.941406 C 263.472656 150.199219 265.0625 149.5 266.671875 148.835938 C 268.28125 148.175781 269.90625 147.554688 271.546875 146.972656 C 273.1875 146.386719 274.839844 145.847656 276.503906 145.34375 C 278.171875 144.84375 279.847656 144.382812 281.539062 143.964844 C 283.226562 143.546875 284.925781 143.171875 286.632812 142.835938 C 288.339844 142.5 290.054688 142.207031 291.777344 141.953125 C 293.5 141.703125 295.226562 141.496094 296.957031 141.328125 C 298.691406 141.164062 300.425781 141.039062 302.164062 140.957031 C 303.902344 140.875 305.640625 140.839844 307.382812 140.84375 C 307.59375 140.84375 309.03125 140.949219 309.242188 140.949219 C 310.007812 140.941406 310.769531 140.871094 311.523438 140.738281 C 312.277344 140.605469 313.015625 140.410156 313.734375 140.152344 C 314.457031 139.894531 315.152344 139.578125 315.820312 139.207031 C 316.492188 138.835938 317.125 138.410156 317.722656 137.929688 C 318.320312 137.453125 318.875 136.925781 319.386719 136.355469 C 319.894531 135.785156 320.355469 135.175781 320.765625 134.527344 C 321.175781 133.878906 321.527344 133.203125 321.824219 132.496094 C 322.117188 131.789062 322.355469 131.066406 322.53125 130.320312 C 322.867188 128.644531 323.242188 126.980469 323.652344 125.320312 C 324.0625 123.664062 324.507812 122.015625 324.992188 120.375 C 325.472656 118.738281 325.988281 117.109375 326.539062 115.492188 C 327.089844 113.875 327.675781 112.269531 328.292969 110.679688 C 328.914062 109.085938 329.566406 107.507812 330.253906 105.945312 C 330.941406 104.382812 331.660156 102.832031 332.414062 101.300781 C 333.167969 99.765625 333.953125 98.25 334.773438 96.753906 C 335.589844 95.253906 336.441406 93.773438 337.324219 92.308594 C 338.203125 90.847656 339.117188 89.402344 340.0625 87.980469 C 341.003906 86.554688 341.980469 85.152344 342.984375 83.769531 C 343.988281 82.390625 345.019531 81.027344 346.082031 79.691406 C 347.144531 78.351562 348.234375 77.039062 349.351562 75.75 C 350.472656 74.457031 351.617188 73.191406 352.789062 71.949219 C 353.960938 70.707031 355.160156 69.492188 356.386719 68.300781 C 357.609375 67.109375 358.859375 65.945312 360.132812 64.808594 C 361.410156 63.671875 362.707031 62.5625 364.03125 61.480469 C 365.351562 60.398438 366.695312 59.347656 368.0625 58.324219 C 369.433594 57.300781 370.820312 56.304688 372.230469 55.34375 C 373.640625 54.378906 375.070312 53.445312 376.519531 52.542969 C 377.96875 51.636719 379.4375 50.765625 380.925781 49.925781 C 382.414062 49.085938 383.917969 48.277344 385.441406 47.503906 C 386.960938 46.726562 388.5 45.984375 390.054688 45.277344 C 391.605469 44.566406 393.175781 43.890625 394.757812 43.246094 C 396.339844 42.605469 397.9375 41.996094 399.542969 41.421875 C 401.152344 40.847656 402.773438 40.308594 404.40625 39.804688 C 406.039062 39.300781 407.679688 38.832031 409.332031 38.398438 C 410.984375 37.960938 412.644531 37.5625 414.3125 37.199219 C 415.980469 36.835938 417.65625 36.511719 419.339844 36.21875 C 421.023438 35.925781 422.710938 35.671875 424.40625 35.453125 C 426.101562 35.234375 427.796875 35.050781 429.5 34.90625 C 431.203125 34.757812 432.90625 34.648438 434.613281 34.578125 C 436.320312 34.503906 438.027344 34.46875 439.734375 34.46875 C 441.441406 34.46875 443.148438 34.503906 444.855469 34.578125 C 446.5625 34.648438 448.265625 34.757812 449.96875 34.90625 C 451.671875 35.050781 453.367188 35.234375 455.0625 35.453125 C 456.757812 35.671875 458.445312 35.925781 460.128906 36.21875 C 461.8125 36.511719 463.488281 36.835938 465.15625 37.199219 C 466.824219 37.5625 468.484375 37.960938 470.136719 38.398438 C 471.789062 38.832031 473.433594 39.300781 475.0625 39.804688 C 476.695312 40.308594 478.316406 40.847656 479.925781 41.421875 C 481.535156 41.996094 483.128906 42.605469 484.710938 43.246094 C 486.292969 43.890625 487.863281 44.566406 489.417969 45.277344 C 490.96875 45.984375 492.507812 46.726562 494.03125 47.503906 C 495.550781 48.277344 497.054688 49.085938 498.542969 49.925781 C 500.03125 50.765625 501.5 51.636719 502.949219 52.542969 C 504.398438 53.445312 505.828125 54.378906 507.238281 55.34375 C 508.648438 56.304688 510.039062 57.300781 511.40625 58.324219 C 512.773438 59.347656 514.117188 60.398438 515.4375 61.480469 C 516.761719 62.5625 518.058594 63.671875 519.335938 64.808594 C 520.609375 65.945312 521.859375 67.109375 523.082031 68.300781 C 524.308594 69.492188 525.507812 70.707031 526.679688 71.949219 C 527.851562 73.191406 529 74.457031 530.117188 75.75 C 531.234375 77.039062 532.324219 78.351562 533.386719 79.691406 C 534.449219 81.027344 535.484375 82.390625 536.488281 83.769531 C 537.492188 85.152344 538.464844 86.554688 539.40625 87.980469 C 540.351562 89.402344 541.265625 90.847656 542.144531 92.308594 C 543.027344 93.773438 543.878906 95.253906 544.695312 96.753906 C 545.515625 98.25 546.300781 99.765625 547.054688 101.300781 C 547.808594 102.832031 548.527344 104.382812 549.214844 105.945312 C 549.902344 107.507812 550.554688 109.085938 551.175781 110.679688 C 551.792969 112.269531 552.378906 113.875 552.929688 115.492188 C 553.480469 117.109375 553.996094 118.738281 554.476562 120.375 C 554.960938 122.015625 555.40625 123.664062 555.816406 125.320312 C 556.226562 126.980469 556.601562 128.644531 556.9375 130.320312 C 557.113281 131.066406 557.347656 131.792969 557.640625 132.5 C 557.933594 133.207031 558.285156 133.886719 558.695312 134.535156 C 559.101562 135.183594 559.5625 135.792969 560.074219 136.367188 C 560.585938 136.9375 561.136719 137.460938 561.738281 137.941406 C 562.335938 138.421875 562.96875 138.847656 563.640625 139.21875 C 564.308594 139.589844 565.003906 139.90625 565.726562 140.160156 C 566.449219 140.417969 567.1875 140.613281 567.945312 140.742188 C 568.699219 140.875 569.460938 140.945312 570.226562 140.949219 L 572.699219 140.84375 C 574.4375 140.84375 576.175781 140.886719 577.914062 140.96875 C 579.652344 141.054688 581.386719 141.183594 583.117188 141.355469 C 584.847656 141.523438 586.574219 141.738281 588.292969 141.992188 C 590.015625 142.25 591.730469 142.546875 593.433594 142.886719 C 595.140625 143.222656 596.839844 143.605469 598.527344 144.027344 C 600.214844 144.449219 601.890625 144.914062 603.554688 145.417969 C 605.21875 145.925781 606.871094 146.46875 608.507812 147.054688 C 610.144531 147.640625 611.769531 148.269531 613.375 148.933594 C 614.984375 149.601562 616.574219 150.304688 618.144531 151.046875 C 619.71875 151.792969 621.269531 152.574219 622.804688 153.394531 C 624.339844 154.214844 625.851562 155.070312 627.34375 155.964844 C 628.835938 156.859375 630.304688 157.789062 631.753906 158.757812 C 633.199219 159.722656 634.621094 160.722656 636.019531 161.761719 C 637.414062 162.796875 638.785156 163.867188 640.132812 164.972656 C 641.476562 166.074219 642.792969 167.210938 644.082031 168.378906 C 645.371094 169.546875 646.628906 170.746094 647.859375 171.976562 C 649.089844 173.207031 650.289062 174.464844 651.457031 175.753906 C 652.625 177.042969 653.761719 178.359375 654.867188 179.707031 C 655.96875 181.050781 657.039062 182.421875 658.074219 183.816406 C 659.113281 185.214844 660.113281 186.636719 661.078125 188.082031 C 662.046875 189.53125 662.976562 191 663.871094 192.492188 C 664.765625 193.984375 665.621094 195.496094 666.441406 197.03125 C 667.261719 198.566406 668.042969 200.117188 668.789062 201.691406 C 669.53125 203.265625 670.238281 204.855469 670.902344 206.460938 C 671.570312 208.066406 672.195312 209.691406 672.78125 211.328125 C 673.367188 212.964844 673.910156 214.617188 674.417969 216.28125 C 674.921875 217.949219 675.386719 219.625 675.808594 221.3125 C 676.230469 223 676.613281 224.695312 676.953125 226.402344 C 677.292969 228.109375 677.589844 229.820312 677.84375 231.542969 C 678.097656 233.261719 678.3125 234.988281 678.480469 236.71875 C 678.652344 238.453125 678.78125 240.1875 678.867188 241.921875 C 678.953125 243.660156 678.996094 245.398438 678.996094 247.140625 C 678.996094 248.878906 678.953125 250.617188 678.867188 252.355469 C 678.78125 254.09375 678.652344 255.828125 678.480469 257.558594 C 678.3125 259.289062 678.097656 261.015625 677.84375 262.734375 C 677.589844 264.457031 677.292969 266.171875 676.953125 267.875 C 676.613281 269.582031 676.230469 271.277344 675.808594 272.964844 C 675.386719 274.652344 674.921875 276.332031 674.417969 277.996094 C 673.910156 279.660156 673.367188 281.3125 672.78125 282.949219 C 672.195312 284.585938 671.570312 286.210938 670.902344 287.816406 C 670.238281 289.425781 669.53125 291.015625 668.789062 292.585938 C 668.042969 294.160156 667.261719 295.710938 666.441406 297.246094 C 665.621094 298.78125 664.765625 300.292969 663.871094 301.785156 C 662.976562 303.277344 662.046875 304.746094 661.078125 306.195312 C 660.113281 307.640625 659.113281 309.0625 658.074219 310.460938 C 657.039062 311.855469 655.96875 313.226562 654.867188 314.574219 C 653.761719 315.917969 652.625 317.234375 651.457031 318.523438 C 650.289062 319.8125 649.089844 321.070312 647.859375 322.300781 C 646.628906 323.53125 645.371094 324.730469 644.082031 325.898438 C 642.792969 327.066406 641.476562 328.203125 640.132812 329.308594 C 638.785156 330.410156 637.414062 331.480469 636.019531 332.515625 C 634.621094 333.554688 633.199219 334.554688 631.753906 335.519531 C 630.304688 336.488281 628.835938 337.417969 627.34375 338.3125 C 625.851562 339.207031 624.339844 340.0625 622.804688 340.882812 C 621.269531 341.703125 619.71875 342.484375 618.144531 343.230469 C 616.574219 343.972656 614.984375 344.679688 613.375 345.34375 C 611.769531 346.007812 610.144531 346.636719 608.507812 347.222656 C 606.871094 347.808594 605.21875 348.351562 603.554688 348.859375 C 601.890625 349.363281 600.214844 349.828125 598.527344 350.25 C 596.839844 350.671875 595.140625 351.054688 593.433594 351.394531 C 591.730469 351.730469 590.015625 352.03125 588.292969 352.285156 C 586.574219 352.539062 584.847656 352.753906 583.117188 352.921875 C 581.386719 353.09375 579.652344 353.222656 577.914062 353.308594 C 576.175781 353.390625 574.4375 353.433594 572.699219 353.433594 Z M 572.699219 353.433594 " fill-opacity="1" fill-rule="nonzero"/></g></svg>
