<svg xmlns="http://www.w3.org/2000/svg" xmlns:xlink="http://www.w3.org/1999/xlink" width="512" zoomAndPan="magnify" viewBox="0 0 384 383.999986" height="512" preserveAspectRatio="xMidYMid meet" version="1.0"><defs><clipPath id="b67e068d11"><path d="M 0 14.554688 L 381 14.554688 L 381 309 L 0 309 Z M 0 14.554688 " clip-rule="nonzero"/></clipPath></defs><g clip-path="url(#b67e068d11)"><path fill="#FFFFFF" d="M 376.820312 75.714844 C 373.800781 72.046875 369.300781 69.921875 364.550781 69.921875 L 92.992188 69.921875 L 79.917969 25.953125 C 77.910156 19.191406 71.707031 14.5625 64.667969 14.5625 L 16.078125 14.5625 C 7.289062 14.5625 0.160156 21.699219 0.160156 30.5 C 0.160156 39.304688 7.289062 46.4375 16.078125 46.4375 L 52.792969 46.4375 L 112.277344 246.523438 C 105.832031 258.359375 99.714844 275.308594 106.648438 289.507812 C 112.789062 302.078125 126.664062 308.453125 147.878906 308.453125 C 148.261719 308.453125 148.648438 308.4375 149.03125 308.398438 C 150.410156 308.269531 287.53125 295.683594 334.808594 298.363281 C 341.699219 298.734375 347.671875 293.449219 348.0625 286.507812 C 348.453125 279.574219 343.152344 273.628906 336.222656 273.242188 C 288.222656 270.53125 158.601562 282.25 147.320312 283.285156 C 135.6875 283.207031 130.300781 280.644531 129.226562 278.453125 C 128.027344 276.007812 128.878906 271.394531 130.898438 266.167969 C 131.234375 266.148438 131.570312 266.144531 131.914062 266.101562 L 339.652344 240.9375 C 346.519531 240.105469 352.0625 234.925781 353.367188 228.128906 L 380.179688 88.882812 C 381.074219 84.210938 379.84375 79.378906 376.820312 75.714844 Z M 261.515625 153.03125 L 196.179688 153.03125 L 196.179688 101.800781 L 261.515625 101.800781 Z M 122.191406 168.128906 L 181.101562 168.128906 L 181.101562 228.035156 L 141.425781 232.84375 Z M 196.179688 168.128906 L 261.515625 168.128906 L 261.515625 218.292969 L 196.179688 226.207031 Z M 335.414062 153.03125 L 276.59375 153.03125 L 276.59375 101.800781 L 345.277344 101.800781 Z M 181.101562 101.800781 L 181.101562 153.03125 L 117.699219 153.03125 L 102.46875 101.800781 Z M 276.59375 216.464844 L 276.59375 168.128906 L 332.503906 168.128906 L 324.308594 210.683594 Z M 276.59375 216.464844 " fill-opacity="1" fill-rule="nonzero"/></g><path fill="#FFFFFF" d="M 160.160156 352.582031 C 160.160156 353.625 160.109375 354.667969 160.003906 355.707031 C 159.902344 356.742188 159.75 357.773438 159.546875 358.796875 C 159.34375 359.820312 159.089844 360.832031 158.789062 361.828125 C 158.488281 362.828125 158.136719 363.808594 157.738281 364.769531 C 157.339844 365.734375 156.894531 366.675781 156.402344 367.597656 C 155.914062 368.515625 155.378906 369.410156 154.800781 370.277344 C 154.21875 371.144531 153.601562 371.980469 152.941406 372.785156 C 152.277344 373.59375 151.582031 374.363281 150.84375 375.101562 C 150.109375 375.839844 149.335938 376.539062 148.53125 377.203125 C 147.726562 377.863281 146.890625 378.484375 146.023438 379.0625 C 145.160156 379.640625 144.265625 380.179688 143.347656 380.667969 C 142.429688 381.160156 141.488281 381.605469 140.527344 382.003906 C 139.566406 382.40625 138.585938 382.757812 137.589844 383.058594 C 136.59375 383.363281 135.582031 383.613281 134.5625 383.816406 C 133.539062 384.023438 132.511719 384.175781 131.472656 384.277344 C 130.4375 384.378906 129.398438 384.429688 128.355469 384.429688 C 127.316406 384.429688 126.277344 384.378906 125.238281 384.277344 C 124.203125 384.175781 123.175781 384.023438 122.152344 383.816406 C 121.132812 383.613281 120.121094 383.363281 119.125 383.058594 C 118.128906 382.757812 117.148438 382.40625 116.1875 382.003906 C 115.226562 381.605469 114.285156 381.160156 113.367188 380.667969 C 112.449219 380.179688 111.554688 379.640625 110.6875 379.0625 C 109.824219 378.484375 108.988281 377.863281 108.183594 377.203125 C 107.378906 376.539062 106.605469 375.839844 105.871094 375.101562 C 105.132812 374.363281 104.433594 373.59375 103.773438 372.785156 C 103.113281 371.980469 102.492188 371.144531 101.914062 370.277344 C 101.335938 369.410156 100.800781 368.515625 100.3125 367.597656 C 99.820312 366.675781 99.375 365.734375 98.976562 364.769531 C 98.578125 363.808594 98.226562 362.828125 97.925781 361.828125 C 97.621094 360.832031 97.371094 359.820312 97.167969 358.796875 C 96.964844 357.773438 96.8125 356.742188 96.710938 355.707031 C 96.605469 354.667969 96.554688 353.625 96.554688 352.582031 C 96.554688 351.539062 96.605469 350.5 96.710938 349.460938 C 96.8125 348.425781 96.964844 347.394531 97.167969 346.371094 C 97.371094 345.347656 97.621094 344.335938 97.925781 343.339844 C 98.226562 342.339844 98.578125 341.359375 98.976562 340.398438 C 99.375 339.433594 99.820312 338.492188 100.3125 337.570312 C 100.800781 336.652344 101.335938 335.757812 101.914062 334.890625 C 102.492188 334.023438 103.113281 333.1875 103.773438 332.378906 C 104.433594 331.574219 105.132812 330.800781 105.871094 330.066406 C 106.605469 329.328125 107.378906 328.628906 108.183594 327.964844 C 108.988281 327.304688 109.824219 326.683594 110.6875 326.105469 C 111.554688 325.523438 112.449219 324.988281 113.367188 324.496094 C 114.285156 324.007812 115.226562 323.5625 116.1875 323.160156 C 117.148438 322.761719 118.128906 322.410156 119.125 322.109375 C 120.121094 321.804688 121.132812 321.554688 122.152344 321.347656 C 123.175781 321.144531 124.203125 320.992188 125.238281 320.890625 C 126.277344 320.789062 127.316406 320.738281 128.355469 320.738281 C 129.398438 320.738281 130.4375 320.789062 131.472656 320.890625 C 132.511719 320.992188 133.539062 321.144531 134.5625 321.347656 C 135.582031 321.554688 136.59375 321.804688 137.589844 322.109375 C 138.585938 322.410156 139.566406 322.761719 140.527344 323.160156 C 141.488281 323.5625 142.429688 324.007812 143.347656 324.496094 C 144.265625 324.988281 145.160156 325.523438 146.023438 326.105469 C 146.890625 326.683594 147.726562 327.304688 148.53125 327.964844 C 149.335938 328.628906 150.109375 329.328125 150.84375 330.066406 C 151.582031 330.800781 152.277344 331.574219 152.941406 332.378906 C 153.601562 333.1875 154.21875 334.023438 154.800781 334.890625 C 155.378906 335.757812 155.914062 336.652344 156.402344 337.570312 C 156.894531 338.492188 157.339844 339.433594 157.738281 340.398438 C 158.136719 341.359375 158.488281 342.339844 158.789062 343.339844 C 159.089844 344.335938 159.34375 345.347656 159.546875 346.371094 C 159.75 347.394531 159.902344 348.425781 160.003906 349.460938 C 160.109375 350.5 160.160156 351.539062 160.160156 352.582031 Z M 160.160156 352.582031 " fill-opacity="1" fill-rule="nonzero"/><path fill="#FFFFFF" d="M 341.09375 352.582031 C 341.09375 353.625 341.042969 354.667969 340.941406 355.707031 C 340.835938 356.742188 340.683594 357.773438 340.480469 358.796875 C 340.277344 359.820312 340.027344 360.832031 339.722656 361.828125 C 339.421875 362.828125 339.070312 363.808594 338.671875 364.769531 C 338.273438 365.734375 337.828125 366.675781 337.335938 367.597656 C 336.847656 368.515625 336.3125 369.410156 335.734375 370.277344 C 335.15625 371.144531 334.535156 371.980469 333.875 372.785156 C 333.214844 373.59375 332.515625 374.363281 331.777344 375.101562 C 331.042969 375.839844 330.269531 376.539062 329.464844 377.203125 C 328.660156 377.863281 327.824219 378.484375 326.960938 379.0625 C 326.09375 379.640625 325.199219 380.179688 324.28125 380.667969 C 323.363281 381.160156 322.421875 381.605469 321.460938 382.003906 C 320.5 382.40625 319.519531 382.757812 318.523438 383.058594 C 317.527344 383.363281 316.515625 383.613281 315.496094 383.816406 C 314.472656 384.023438 313.445312 384.175781 312.410156 384.277344 C 311.371094 384.378906 310.332031 384.429688 309.292969 384.429688 C 308.25 384.429688 307.210938 384.378906 306.175781 384.277344 C 305.136719 384.175781 304.109375 384.023438 303.085938 383.816406 C 302.066406 383.613281 301.054688 383.363281 300.058594 383.058594 C 299.0625 382.757812 298.082031 382.40625 297.121094 382.003906 C 296.160156 381.605469 295.21875 381.160156 294.300781 380.667969 C 293.382812 380.179688 292.488281 379.640625 291.625 379.0625 C 290.757812 378.484375 289.921875 377.863281 289.117188 377.203125 C 288.3125 376.539062 287.539062 375.839844 286.804688 375.101562 C 286.066406 374.363281 285.371094 373.59375 284.707031 372.785156 C 284.046875 371.980469 283.429688 371.144531 282.847656 370.277344 C 282.269531 369.410156 281.734375 368.515625 281.246094 367.597656 C 280.753906 366.675781 280.308594 365.734375 279.910156 364.769531 C 279.511719 363.808594 279.160156 362.828125 278.859375 361.828125 C 278.558594 360.832031 278.304688 359.820312 278.101562 358.796875 C 277.898438 357.773438 277.746094 356.742188 277.644531 355.707031 C 277.539062 354.667969 277.488281 353.625 277.488281 352.582031 C 277.488281 351.539062 277.539062 350.5 277.644531 349.460938 C 277.746094 348.425781 277.898438 347.394531 278.101562 346.371094 C 278.304688 345.347656 278.558594 344.335938 278.859375 343.339844 C 279.160156 342.339844 279.511719 341.359375 279.910156 340.398438 C 280.308594 339.433594 280.753906 338.492188 281.246094 337.570312 C 281.734375 336.652344 282.269531 335.757812 282.847656 334.890625 C 283.429688 334.023438 284.046875 333.1875 284.707031 332.378906 C 285.371094 331.574219 286.066406 330.800781 286.804688 330.066406 C 287.539062 329.328125 288.3125 328.628906 289.117188 327.964844 C 289.921875 327.304688 290.757812 326.683594 291.625 326.105469 C 292.488281 325.523438 293.382812 324.988281 294.300781 324.496094 C 295.21875 324.007812 296.160156 323.5625 297.121094 323.160156 C 298.082031 322.761719 299.0625 322.410156 300.058594 322.109375 C 301.054688 321.804688 302.066406 321.554688 303.085938 321.347656 C 304.109375 321.144531 305.136719 320.992188 306.175781 320.890625 C 307.210938 320.789062 308.25 320.738281 309.292969 320.738281 C 310.332031 320.738281 311.371094 320.789062 312.410156 320.890625 C 313.445312 320.992188 314.472656 321.144531 315.496094 321.347656 C 316.515625 321.554688 317.527344 321.804688 318.523438 322.109375 C 319.519531 322.410156 320.5 322.761719 321.460938 323.160156 C 322.421875 323.5625 323.363281 324.007812 324.28125 324.496094 C 325.199219 324.988281 326.09375 325.523438 326.960938 326.105469 C 327.824219 326.683594 328.660156 327.304688 329.464844 327.964844 C 330.269531 328.628906 331.042969 329.328125 331.777344 330.066406 C 332.515625 330.800781 333.214844 331.574219 333.875 332.378906 C 334.535156 333.1875 335.15625 334.023438 335.734375 334.890625 C 336.3125 335.757812 336.847656 336.652344 337.335938 337.570312 C 337.828125 338.492188 338.273438 339.433594 338.671875 340.398438 C 339.070312 341.359375 339.421875 342.339844 339.722656 343.339844 C 340.027344 344.335938 340.277344 345.347656 340.480469 346.371094 C 340.683594 347.394531 340.835938 348.425781 340.941406 349.460938 C 341.042969 350.5 341.09375 351.539062 341.09375 352.582031 Z M 341.09375 352.582031 " fill-opacity="1" fill-rule="nonzero"/></svg>
