<svg xmlns="http://www.w3.org/2000/svg" xmlns:xlink="http://www.w3.org/1999/xlink" viewBox="0 0 110.719 37.093"><defs><style>.a{fill:#006daa;}.b{fill:url(#a);}</style><linearGradient id="a" x1="0.385" y1="0.989" x2="0.628" y2="0.032" gradientUnits="objectBoundingBox"><stop offset="0.2" stop-color="#006daa"/><stop offset="0.75" stop-color="#35ac46"/><stop offset="0.84" stop-color="#47af46"/><stop offset="0.987" stop-color="#68b943"/><stop offset="1" stop-color="#6cba43"/></linearGradient></defs><g transform="translate(-32.681 0.003)"><g transform="translate(32.681 16.288)"><path class="a" d="M224.257,78.784c.15-4.561-2.08-7.168-6.14-7.193-4.01,0-6.641,2.556-6.641,6.992,0,4.561,2.882,7.193,7.218,7.193a11.365,11.365,0,0,0,5.063-1.078l-.827-2.055a9.3,9.3,0,0,1-3.86.752c-2.531,0-3.659-.9-3.935-3.408l9.123-1.2ZM221,77.28l-5.965.927c-.125-3.183.977-4.511,2.957-4.536,1.855-.025,2.957.927,3.007,3.609Zm-10.827-3.133,1.378-2.406a13.6,13.6,0,0,0-8.07,1.153V85.35h3.459V74.273a4.525,4.525,0,0,1,3.233-.125Zm-9.4,4.561c0-4.06-2.105-7.042-6.416-7.042-4.286,0-6.416,3.007-6.416,7.042,0,3.985,2.13,7.017,6.416,7.017s6.416-3.033,6.416-7.017Zm-3.509-.075c0,2.556-.451,4.962-2.932,4.962-2.381,0-2.932-2.381-2.932-4.962s.5-5.088,2.932-5.088c2.481.025,2.932,2.506,2.932,5.088Zm-17.293-.1c0-2.957.877-4.586,3.233-4.737a5.308,5.308,0,0,1,2.581.627l.752-1.855a7.1,7.1,0,0,0-3.96-1c-3.408,0-6.316,2.481-6.316,6.992,0,4.486,2.356,6.967,6.24,7.193a7.615,7.615,0,0,0,4.386-1.053l-.8-2a4.615,4.615,0,0,1-2.657.727c-2.155-.05-3.459-1.88-3.459-4.887Zm-5.99-11.5a2,2,0,0,0-2-2.03,2.038,2.038,0,0,0-2.03,2.03,2,2,0,0,0,2,2.03,2.054,2.054,0,0,0,2.03-2.03ZM162.855,85.35h3.509V75.777c0-2.13-1.579-4.185-5.138-4.21a6.824,6.824,0,0,0-4.812,1.4c-1.153-.952-2.256-1.429-4.687-1.429a12.893,12.893,0,0,0-5.614,1.278V85.325h3.408v-11a5.533,5.533,0,0,1,2.231-.5c1.83,0,2.732.852,2.732,2.155v9.348h3.434V74.9a4,4,0,0,1,2.657-1.053c1.8,0,2.306.927,2.306,2.105v9.4ZM136.69,85.8a12.684,12.684,0,0,0,5.89-1.378V72.017h-3.408v10.8a5.145,5.145,0,0,1-2.381.7c-1.754,0-2.581-1-2.581-2.281V72.017H130.7V81.04c0,3.007,2.331,4.762,5.99,4.762Zm36.942-13.784H170.1V85.35h3.534V72.017Z" transform="translate(-130.7 -65)"/></g><path class="b" d="M507.827,6.514c0-.025,0-.025-.025-.05a23.739,23.739,0,0,0-2.657-.226c.05.15.1.276.15.426a9,9,0,0,1-17.318,4.887c-.426.326-.852.652-1.278,1a10.988,10.988,0,0,0,21.127-6.04ZM492.865,8.669a2.25,2.25,0,0,1,4.21-1.529h0c.476-.125.952-.251,1.429-.351a3.506,3.506,0,0,0-6.591,2.281,8.368,8.368,0,0,0,.952-.4,2.461,2.461,0,0,0,.125.4,2.242,2.242,0,1,0,4.06-1.9h0a30.833,30.833,0,0,0-4.185,1.5Zm5.865-1.278a3.5,3.5,0,0,1-6.767,1.8c0-.025-.025-.075-.025-.1-.3.15-.6.326-.9.476,0,.05.025.075.025.125a4.748,4.748,0,0,0,9.173-2.456,4.241,4.241,0,0,0-.251-.677c-.5.075-.977.175-1.479.276a1.82,1.82,0,0,1,.226.551Zm-7.669,2.18a4.738,4.738,0,0,1,8.947-3.007c.5-.075,1-.15,1.5-.2A5.991,5.991,0,0,0,490.159,10.1c.3-.175.576-.351.9-.526Zm10.7-2.481A5.994,5.994,0,1,1,490.184,10.2c0-.025-.025-.075-.025-.1-.3.175-.6.351-.9.551v.05A7.241,7.241,0,0,0,503.241,6.94c-.075-.226-.15-.476-.226-.7-.5.025-1.028.05-1.554.1a3.14,3.14,0,0,1,.3.752Zm3.358-.852a8.991,8.991,0,0,0-17.243,5.088l.075.226c.426-.3.852-.6,1.3-.9a7.243,7.243,0,0,1,13.784-4.386,19.277,19.277,0,0,1,2.08-.025Z" transform="translate(-364.797)"/></g></svg>